<svg xmlns="http://www.w3.org/2000/svg" xml:space="preserve" id="Livello_1" x="0" y="0" viewBox="0 0 561.9 156.3"><style>.st4{display:none}.st5,.st6{display:inline;fill:#f27e63}.st6{fill:#4e5053}.st7{fill:#de805c}.st8{fill:#de805d}.st9{fill:#334559}</style><path d="M81.4 78.3h33.1v3.2H81.4z" class="st7"></path><path d="M149.1 147.6H13.7V12.2H115v3.2H16.9v129h129V46.9h3.2z" class="st7"></path><path d="M114.5 81.5v-3.2c17.3 0 31.5-14.1 31.5-31.5s-14.1-31.5-31.5-31.5v-3.2c19.1 0 34.6 15.5 34.6 34.6s-15.5 34.8-34.6 34.8zM79.8 13.8H83V146h-3.2z" class="st7"></path><path d="M112.9 6h3.2v147.8h-3.2z" class="st7" transform="rotate(-26.565 114.484 79.921)"></path><path d="M46.8 6H50v147.8h-3.2z" class="st7" transform="rotate(-26.565 48.375 79.921)"></path><g><path d="m186 101.5-8.6-23.9c-.2-.5-.4-1-.7-1.3-.3-.3-.7-.5-1.3-.7l-1-.3v-.4H186v.4l-1.2.4c-.6.2-1 .4-1 .8-.1.4 0 .9.2 1.5l5.9 17.6 6-17.7c.2-.6.3-1.1.3-1.5s-.3-.7-.9-.8l-1-.3v-.4h5.6v.4l-1.1.3c-.5.1-.9.4-1.1.7-.2.3-.4.8-.6 1.3l-8 23.9H186zM195.5 101.4v-.4l1-.4c.5-.2 1-.5 1.2-.8.3-.3.5-.7.7-1.3l8.3-23.7h3.4l8.2 23.9c.2.6.5 1 .7 1.3.3.3.7.6 1.2.8l.5.2v.4h-10.2v-.4l.6-.2c.6-.2.9-.5 1-.9.1-.4.1-.9-.1-1.4l-1.9-5.8h-8.9l-1.9 5.7c-.2.6-.2 1.1-.2 1.4.1.3.4.6.9.8l.9.4v.4h-5.4zm6.1-9.5h8.4l-4.1-12.5-4.3 12.5zM222 101.4v-.4l.8-.3c.6-.2.9-.5 1.1-.8.1-.3.2-.7.2-1.3v-21c0-.5-.1-1-.2-1.3-.2-.3-.5-.6-1-.8l-.8-.3v-.4h10.2v.4l-.7.3c-.5.2-.9.4-1 .8-.2.3-.3.8-.3 1.3v22.9h6.2c1 0 1.7-.2 2.2-.7.5-.5.9-1.2 1.3-2.1l1.6-3.4h.4l-.4 7H222zM243.3 101.4v-.4l.9-.4c.5-.2.8-.4.9-.7.2-.3.3-.7.3-1.3v-21c0-.5-.1-1-.2-1.3-.1-.3-.5-.6-1-.7l-.9-.4v-.4h19.2l.2 6.2h-.4l-1.7-3.8c-.2-.5-.5-.9-.8-1.2-.3-.3-.7-.4-1.2-.4h-7.2v11.6h4.3c.5 0 .9-.1 1.2-.4s.5-.7.7-1.1l.8-1.6h.4v7.2h-.4l-.8-1.7c-.2-.5-.5-.9-.8-1.1-.3-.3-.7-.4-1.2-.4h-4.3v12.5h8.1c.5 0 1-.1 1.2-.4s.5-.7.7-1.2l1.6-3.8h.4l-.2 6.2h-19.8zM266.2 101.4v-.4l1.3-.4c.5-.1.8-.4 1-.8.2-.4.3-.9.3-1.4V79.1c-.3-.6-.5-1.1-.7-1.4-.2-.3-.4-.6-.6-.8l-.9-.9-.7-.7v-.4h7.1l13.3 18.2V77.9c0-.5-.1-1-.3-1.4-.2-.4-.5-.7-1.1-.8l-1.3-.4v-.4h5.7v.4l-1.1.4c-.5.2-.8.4-.9.8s-.2.9-.2 1.4v23.6h-2.3l-15.3-21.1v18c0 .5.1 1 .2 1.4.2.4.5.6 1 .8l1.2.4v.4h-5.7zM297.3 101.4v-.4l1.6-.4c1.1-.2 1.6-.9 1.6-2V75.7h-3.4c-1 0-1.7.3-2.1.8-.4.5-.9 1.2-1.4 2.1l-1.4 2.8h-.4l.2-6.5h23.2l.2 6.5h-.4l-1.4-2.8c-.5-.9-.9-1.6-1.3-2.1s-1.1-.8-2.1-.8h-3.4v22.9c0 1.1.5 1.8 1.6 2l1.6.4v.4h-12.7zM317.1 101.4v-.4l.8-.3c.5-.2.9-.4 1.1-.8.2-.3.3-.7.3-1.3v-21c0-.5-.1-1-.2-1.3-.2-.3-.5-.6-1.1-.8l-.8-.3v-.4h10.3v.4l-.8.3c-.5.2-.9.4-1.1.8-.2.3-.3.8-.3 1.3v21c0 .5.1 1 .3 1.3.2.3.5.6 1.1.8l.8.3v.4h-10.4zM329.7 101.4v-.4l1.3-.4c.5-.1.8-.4 1-.8.2-.4.3-.9.3-1.4V79.1c-.3-.6-.5-1.1-.7-1.4-.2-.3-.4-.6-.6-.8l-.9-.9-.7-.7v-.4h7.1L350 93.1V77.9c0-.5-.1-1-.3-1.4-.2-.4-.5-.7-1.1-.8l-1.3-.4v-.4h5.7v.4l-1.1.4c-.5.2-.8.4-.9.8s-.2.9-.2 1.4v23.6h-2.3l-15.3-21.1v18c0 .5.1 1 .2 1.4.2.4.5.6 1 .8l1.2.4v.4h-5.9zM352.8 101.4v-.4l1-.4c.5-.2 1-.5 1.2-.8.3-.3.5-.7.7-1.3l8.3-23.7h3.4l8.2 23.9c.2.6.5 1 .7 1.3.3.3.7.6 1.2.8l.5.2v.4h-10.2v-.4l.6-.2c.6-.2.9-.5 1-.9.1-.4.1-.9-.1-1.4l-1.9-5.8h-8.9l-1.9 5.7c-.2.6-.2 1.1-.2 1.4.1.3.4.6.9.8l.9.4v.4h-5.4zm6.1-9.5h8.4l-4.1-12.5-4.3 12.5zM388.2 101.4v-.4l.7-.2c.5-.2.9-.4 1.1-.8.2-.3.3-.8.3-1.3v-21c0-.5-.1-1-.2-1.3-.1-.3-.5-.6-1-.8l-.9-.3v-.4h19.4l.3 6.7h-.4l-2.3-4.2c-.3-.5-.6-.9-.9-1.2-.3-.3-.8-.4-1.4-.4h-6.5v11.7h4.2c.6 0 1.1-.1 1.4-.4.3-.3.6-.7.8-1.2l.8-1.5h.4v7h-.4l-.9-1.5c-.3-.5-.5-.9-.8-1.2-.3-.3-.7-.4-1.3-.4h-4.2v10.4c0 1 .5 1.7 1.5 2l1.2.4v.4h-10.9zM409.6 101.4v-.4l.8-.3c.5-.2.9-.4 1.1-.8.2-.3.3-.7.3-1.3v-21c0-.5-.1-1-.2-1.3-.2-.3-.5-.6-1.1-.8l-.8-.3v-.4H420v.4l-.8.3c-.5.2-.9.4-1.1.8-.2.3-.3.8-.3 1.3v21c0 .5.1 1 .3 1.3.2.3.5.6 1.1.8l.8.3v.4h-10.4zM421.7 101.4v-.4l.8-.3c.6-.2.9-.5 1.1-.8.1-.3.2-.7.2-1.3v-21c0-.5-.1-1-.2-1.3-.2-.3-.5-.6-1-.8l-.8-.3v-.4H432v.4l-.7.3c-.5.2-.9.4-1 .8-.2.3-.3.8-.3 1.3v22.9h6.2c1 0 1.7-.2 2.2-.7.5-.5.9-1.2 1.3-2.1l1.6-3.4h.4l-.4 7h-19.6zM443 101.4v-.4l.8-.3c.5-.2.9-.4 1.1-.8.2-.3.3-.7.3-1.3v-21c0-.5-.1-1-.2-1.3-.2-.3-.5-.6-1.1-.8l-.8-.3v-.4h10.3v.4l-.8.3c-.5.2-.9.4-1.1.8-.2.3-.3.8-.3 1.3v21c0 .5.1 1 .3 1.3.2.3.5.6 1.1.8l.8.3v.4H443zM455.1 101.4v-.4l.8-.3c.5-.2.9-.4 1.1-.7.2-.3.3-.8.3-1.3v-21c0-.5-.1-1-.3-1.3s-.5-.6-1.1-.8l-.8-.3v-.4h9.8c4 0 6.9.7 8.7 2.2 1.8 1.5 2.7 3.4 2.7 5.8 0 1.5-.4 2.9-1.1 4.2-.7 1.3-1.9 2.3-3.6 3-1.7.8-4 1.1-6.8 1.1h-1.4v7.4c0 1 .5 1.7 1.6 2l1.2.4v.4h-11.1zm8.2-11h1.5c1.3 0 2.4-.2 3.2-.6.8-.4 1.4-1.2 1.8-2.3.4-1.1.6-2.6.6-4.5s-.2-3.4-.7-4.5c-.4-1.1-1.1-1.8-1.9-2.2-.9-.4-1.9-.6-3.2-.6h-1.4v14.7zM477.4 101.4v-.4l.8-.3c.5-.2.9-.4 1.1-.7.2-.3.3-.8.3-1.3v-21c0-.5-.1-1-.3-1.3s-.5-.6-1.1-.8l-.8-.3v-.4h9.8c4 0 6.9.7 8.7 2.2 1.8 1.5 2.7 3.4 2.7 5.8 0 1.5-.4 2.9-1.1 4.2-.7 1.3-1.9 2.3-3.6 3-1.7.8-4 1.1-6.8 1.1h-1.4v7.4c0 1 .5 1.7 1.6 2l1.2.4v.4h-11.1zm8.2-11h1.5c1.3 0 2.4-.2 3.2-.6.8-.4 1.4-1.2 1.8-2.3.4-1.1.6-2.6.6-4.5s-.2-3.4-.7-4.5c-.4-1.1-1.1-1.8-1.9-2.2-.9-.4-1.9-.6-3.2-.6h-1.4v14.7zM499.7 101.4v-.4l.8-.3c.5-.2.9-.4 1.1-.8.2-.3.3-.7.3-1.3v-21c0-.5-.1-1-.2-1.3-.2-.3-.5-.6-1.1-.8l-.8-.3v-.4H510v.4l-.8.3c-.5.2-.9.4-1.1.8-.2.3-.3.8-.3 1.3v21c0 .5.1 1 .3 1.3.2.3.5.6 1.1.8l.8.3v.4h-10.3zM512.3 101.4v-.4l1.3-.4c.5-.1.8-.4 1-.8.2-.4.3-.9.3-1.4V79.1c-.3-.6-.5-1.1-.7-1.4-.2-.3-.4-.6-.6-.8l-.9-.9-.7-.7v-.4h7.1l13.3 18.2V77.9c0-.5-.1-1-.3-1.4-.2-.4-.5-.7-1.1-.8l-1.3-.4v-.4h5.7v.4l-1.1.4c-.5.2-.8.4-.9.8s-.2.9-.2 1.4v23.6h-2.3L516 80.4v18c0 .5.1 1 .2 1.4.2.4.5.6 1 .8l1.2.4v.4h-6.1zM537.6 101.4v-.4l.8-.3c.5-.2.9-.4 1.1-.8.2-.3.3-.7.3-1.3v-21c0-.5-.1-1-.2-1.3-.2-.3-.5-.6-1.1-.8l-.8-.3v-.4H548v.4l-.8.3c-.5.2-.9.4-1.1.8-.2.3-.3.8-.3 1.3v21c0 .5.1 1 .3 1.3.2.3.5.6 1.1.8l.8.3v.4h-10.4z" class="st8"></path></g><g><path d="M216.3 135.8c0-1.2.2-2.4.6-3.6.4-1.2 1-2.2 1.9-3.2s1.8-1.7 3-2.3c1.2-.6 2.5-.9 4-.9 1.8 0 3.3.4 4.6 1.2s2.2 1.9 2.8 3.1l-2 1.3c-.4-.8-.9-1.5-1.5-2s-1.3-.8-2-1.1c-.7-.2-1.4-.3-2.1-.3-1.1 0-2.1.2-2.9.7-.9.5-1.6 1.1-2.2 1.8-.6.8-1 1.6-1.3 2.5-.3.9-.4 1.9-.4 2.8 0 1 .2 2 .5 3s.8 1.8 1.5 2.5c.6.7 1.4 1.3 2.2 1.7.8.4 1.8.6 2.8.6.7 0 1.4-.1 2.1-.4.7-.2 1.4-.6 2.1-1.1.6-.5 1.1-1.2 1.5-2l2.1 1.2c-.4 1-1.1 1.8-1.9 2.5s-1.8 1.2-2.9 1.6c-1.1.4-2.1.5-3.1.5-1.4 0-2.6-.3-3.8-.9-1.1-.6-2.1-1.4-3-2.4-.8-1-1.5-2.1-1.9-3.3s-.7-2.3-.7-3.5zM242.8 146.2c-1.1 0-2.1-.2-3-.6s-1.7-.9-2.3-1.6c-.7-.7-1.2-1.5-1.5-2.4-.4-.9-.5-1.9-.5-2.9s.2-2 .5-2.9c.4-.9.9-1.7 1.5-2.4.7-.7 1.4-1.2 2.3-1.6.9-.4 1.9-.6 3-.6s2.1.2 3 .6c.9.4 1.7 1 2.4 1.6.7.7 1.2 1.5 1.5 2.4.4.9.5 1.9.5 2.9s-.2 2-.5 2.9c-.4.9-.9 1.7-1.5 2.4-.7.7-1.4 1.2-2.4 1.6s-1.9.6-3 .6zm-4.8-7.5c0 1 .2 1.9.7 2.7.4.8 1 1.5 1.8 1.9.7.5 1.5.7 2.4.7s1.7-.2 2.5-.7 1.3-1.1 1.8-2c.4-.8.7-1.7.7-2.7s-.2-1.9-.7-2.7c-.4-.8-1-1.5-1.8-2s-1.6-.7-2.5-.7-1.7.2-2.4.7c-.7.5-1.3 1.1-1.8 2-.5.9-.7 1.8-.7 2.8zM266 145.9h-2.5v-8.1c0-1.5-.2-2.7-.7-3.4-.5-.7-1.2-1.1-2.2-1.1-.7 0-1.3.2-2 .5s-1.3.8-1.8 1.3c-.5.6-.9 1.2-1.1 2v8.8h-2.5v-14.6h2.3v3.2c.4-.7.9-1.3 1.5-1.8s1.3-.9 2.1-1.2c.8-.3 1.6-.4 2.5-.4.8 0 1.6.2 2.1.5s1 .7 1.4 1.3c.3.5.6 1.2.7 1.9s.2 1.6.2 2.4v8.7zM274.9 146.2c-1.2 0-2.4-.2-3.4-.6-1.1-.4-2-1-2.8-1.8l1-1.7c.8.8 1.7 1.4 2.5 1.7.8.3 1.7.5 2.6.5 1 0 1.8-.2 2.5-.6.6-.4 1-.9 1-1.7 0-.5-.2-.9-.5-1.2s-.8-.5-1.4-.7c-.6-.2-1.3-.4-2.1-.6-1-.3-1.9-.6-2.6-.9-.7-.3-1.2-.8-1.6-1.3-.4-.5-.5-1.1-.5-1.9 0-.9.2-1.7.7-2.4.5-.6 1.2-1.1 2-1.5.9-.3 1.8-.5 2.9-.5 1.1 0 2.1.2 3 .5.9.3 1.6.8 2.3 1.5l-1.1 1.7c-.6-.6-1.2-1-1.9-1.3s-1.5-.4-2.3-.4c-.5 0-1 .1-1.5.2s-.9.3-1.2.6c-.3.3-.5.7-.5 1.3 0 .5.1.8.4 1.1.3.3.6.5 1.1.7.5.2 1.1.4 1.8.6 1.1.3 2.1.6 2.9.9.8.3 1.5.7 1.9 1.2.5.5.7 1.2.7 2.1 0 1.4-.5 2.5-1.6 3.2s-2.5 1.3-4.3 1.3zM283.5 140.1v-8.8h2.5v8.3c0 1.5.3 2.6.8 3.4.5.7 1.3 1.1 2.3 1.1.7 0 1.3-.1 2-.4.6-.3 1.2-.7 1.7-1.2s.9-1.2 1.2-1.9v-9.2h2.5v11.8c0 .3.1.5.2.7.1.1.3.2.6.2v1.9c-.3 0-.5.1-.7.1h-.5c-.5 0-.9-.1-1.2-.4s-.5-.6-.5-1.1l-.1-1.7c-.6 1.1-1.5 1.9-2.6 2.5-1.1.6-2.3.9-3.5.9-1.5 0-2.7-.5-3.5-1.6-.8-1.1-1.2-2.6-1.2-4.6zM300.6 125.4h2.5v16.8c0 .8.1 1.3.3 1.5.2.2.5.3.8.3.4 0 .8 0 1.1-.1s.7-.2.9-.3l.4 2c-.4.2-.9.3-1.5.4-.6.1-1.1.2-1.5.2-1 0-1.7-.3-2.3-.8s-.8-1.3-.8-2.3v-17.7zM315.1 146.2c-1.1 0-2.1-.2-3-.6s-1.7-.9-2.4-1.6c-.7-.7-1.2-1.5-1.5-2.4-.4-.9-.5-1.9-.5-2.9 0-1.4.3-2.6 1-3.8.6-1.1 1.5-2 2.7-2.7 1.1-.7 2.4-1 3.9-1s2.8.3 3.9 1 2 1.6 2.6 2.7c.6 1.1.9 2.3.9 3.6v.9h-12.2c.1.9.3 1.8.8 2.5s1.1 1.3 1.8 1.7c.7.4 1.5.6 2.4.6.9 0 1.7-.2 2.5-.7.8-.5 1.3-1 1.6-1.8l2.1.6c-.3.7-.8 1.4-1.4 1.9-.6.6-1.4 1-2.2 1.3-1.1.6-2 .7-3 .7zm-5-8.4h10c-.1-.9-.3-1.8-.8-2.5s-1.1-1.3-1.8-1.7-1.5-.6-2.4-.6c-.9 0-1.7.2-2.4.6-.7.4-1.3 1-1.8 1.7s-.7 1.5-.8 2.5zM338 145.9h-2.5v-8.1c0-1.5-.2-2.7-.7-3.4-.5-.7-1.2-1.1-2.2-1.1-.7 0-1.3.2-2 .5s-1.3.8-1.8 1.3c-.5.6-.9 1.2-1.1 2v8.8h-2.5v-14.6h2.3v3.2c.4-.7.9-1.3 1.5-1.8s1.3-.9 2.1-1.2c.8-.3 1.6-.4 2.5-.4.8 0 1.6.2 2.1.5s1 .7 1.4 1.3c.3.5.6 1.2.7 1.9s.2 1.6.2 2.4v8.7zM349.3 145.3c-.2.1-.5.2-.8.4s-.8.3-1.2.4c-.5.1-1 .2-1.5.2-.6 0-1.2-.1-1.7-.3-.5-.2-.9-.6-1.2-1-.3-.5-.5-1-.5-1.7v-9.9h-2v-1.9h2v-4.9h2.5v4.9h3.3v1.9h-3.3v9.1c0 .5.2.9.5 1.2s.7.4 1.1.4c.5 0 .9-.1 1.4-.3.4-.2.7-.3.8-.4l.6 1.9zM357.9 146.2c-1.1 0-2.1-.2-3-.6s-1.7-.9-2.4-1.6c-.7-.7-1.2-1.5-1.5-2.4-.4-.9-.5-1.9-.5-2.9 0-1.4.3-2.6 1-3.8.6-1.1 1.5-2 2.7-2.7 1.1-.7 2.4-1 3.9-1s2.8.3 3.9 1 2 1.6 2.6 2.7c.6 1.1.9 2.3.9 3.6v.9H353c.1.9.3 1.8.8 2.5s1.1 1.3 1.8 1.7c.7.4 1.5.6 2.4.6.9 0 1.7-.2 2.5-.7.8-.5 1.3-1 1.6-1.8l2.1.6c-.3.7-.8 1.4-1.4 1.9-.6.6-1.4 1-2.2 1.3-.8.6-1.7.7-2.7.7zm-5-8.4h10c-.1-.9-.3-1.8-.8-2.5s-1.1-1.3-1.8-1.7-1.5-.6-2.4-.6c-.9 0-1.7.2-2.4.6-.7.4-1.3 1-1.8 1.7s-.7 1.5-.8 2.5zM374.2 138.7c0-1.4.3-2.6.9-3.8.6-1.1 1.4-2.1 2.4-2.8 1-.7 2.2-1 3.4-1 1.2 0 2.2.3 3.2.9s1.7 1.4 2.2 2.3v-8.9h2.5v17.7c0 .3.1.5.2.7s.3.2.6.2v1.9c-.5.1-.8.1-1.1.1-.5 0-.9-.2-1.3-.5s-.5-.7-.5-1.1v-1.2c-.6.9-1.4 1.7-2.3 2.2s-2 .8-3 .8-1.9-.2-2.8-.6c-.9-.4-1.6-1-2.2-1.7-.6-.7-1.1-1.5-1.5-2.4-.5-.9-.7-1.8-.7-2.8zm12 2.1v-4.2c-.2-.6-.6-1.2-1.1-1.7-.5-.5-1.1-.9-1.7-1.2-.6-.3-1.3-.5-1.9-.5-.7 0-1.4.2-2 .5-.6.3-1.1.7-1.5 1.2-.4.5-.7 1.1-1 1.7-.2.7-.3 1.3-.3 2s.1 1.4.4 2.1c.3.6.6 1.2 1.1 1.7.5.5 1 .9 1.6 1.2.6.3 1.3.4 2 .4.5 0 .9-.1 1.4-.3s.9-.4 1.4-.7.8-.6 1.1-1 .5-.7.5-1.2zM399.4 146.2c-1.1 0-2.1-.2-3-.6s-1.7-.9-2.4-1.6c-.7-.7-1.2-1.5-1.5-2.4-.4-.9-.5-1.9-.5-2.9 0-1.4.3-2.6 1-3.8.6-1.1 1.5-2 2.7-2.7 1.1-.7 2.4-1 3.9-1s2.8.3 3.9 1 2 1.6 2.6 2.7c.6 1.1.9 2.3.9 3.6v.9h-12.2c.1.9.3 1.8.8 2.5s1.1 1.3 1.8 1.7c.7.4 1.5.6 2.4.6.9 0 1.7-.2 2.5-.7.8-.5 1.3-1 1.6-1.8l2.1.6c-.3.7-.8 1.4-1.4 1.9-.6.6-1.4 1-2.2 1.3-1.1.6-2 .7-3 .7zm-5-8.4h10c-.1-.9-.3-1.8-.8-2.5s-1.1-1.3-1.8-1.7-1.5-.6-2.4-.6c-.9 0-1.7.2-2.4.6-.7.4-1.3 1-1.8 1.7s-.7 1.5-.8 2.5zM409.6 125.4h2.5v16.8c0 .8.1 1.3.3 1.5.2.2.5.3.8.3.4 0 .8 0 1.1-.1s.7-.2.9-.3l.4 2c-.4.2-.9.3-1.5.4-.6.1-1.1.2-1.5.2-1 0-1.7-.3-2.3-.8s-.8-1.3-.8-2.3v-17.7zM424.2 145.9v-20h2.5v17.7h11.1v2.3h-13.6zM439.1 141.7c0-.9.3-1.7.8-2.4s1.3-1.2 2.2-1.6c.9-.4 2-.6 3.3-.6.7 0 1.4.1 2.1.2s1.4.3 1.9.5v-1.1c0-1.1-.3-2-1-2.6s-1.6-1-2.9-1c-.8 0-1.6.1-2.3.4s-1.5.7-2.3 1.3l-.9-1.7c1-.7 1.9-1.1 2.9-1.5s2-.5 3-.5c1.9 0 3.4.5 4.4 1.5 1.1 1 1.6 2.5 1.6 4.3v6.2c0 .3.1.5.2.7.1.1.3.2.6.2v1.9c-.2 0-.5.1-.6.1h-.4c-.6 0-1-.2-1.3-.5-.3-.3-.5-.7-.5-1l-.1-.9c-.6.8-1.5 1.5-2.5 1.9s-2.1.7-3.1.7-1.8-.2-2.6-.6-1.4-.9-1.8-1.6c-.5-.7-.7-1.4-.7-2.3zm9.6 1.1c.2-.3.4-.5.5-.8.1-.3.2-.5.2-.7v-1.8c-.6-.2-1.2-.4-1.8-.5-.6-.1-1.3-.2-1.9-.2-1.3 0-2.3.2-3.1.7-.8.5-1.2 1.2-1.2 2 0 .5.1.9.4 1.4.3.4.6.8 1.1 1.1.5.3 1.1.4 1.8.4.8 0 1.5-.2 2.2-.5.8-.3 1.4-.7 1.8-1.1zM459.6 145.9l-5.8-14.6h2.6l4.6 12.3 4.6-12.3h2.4l-5.8 14.6h-2.6zM476.5 146.2c-1.1 0-2.1-.2-3-.6s-1.7-.9-2.3-1.6c-.7-.7-1.2-1.5-1.5-2.4-.4-.9-.5-1.9-.5-2.9s.2-2 .5-2.9c.4-.9.9-1.7 1.5-2.4.7-.7 1.4-1.2 2.3-1.6.9-.4 1.9-.6 3-.6s2.1.2 3 .6c.9.4 1.7 1 2.4 1.6.7.7 1.2 1.5 1.5 2.4.4.9.5 1.9.5 2.9s-.2 2-.5 2.9c-.4.9-.9 1.7-1.5 2.4-.7.7-1.4 1.2-2.4 1.6s-1.9.6-3 .6zm-4.9-7.5c0 1 .2 1.9.7 2.7.4.8 1 1.5 1.8 1.9.7.5 1.5.7 2.4.7s1.7-.2 2.5-.7 1.3-1.1 1.8-2c.4-.8.7-1.7.7-2.7s-.2-1.9-.7-2.7c-.4-.8-1-1.5-1.8-2s-1.6-.7-2.5-.7-1.7.2-2.4.7c-.7.5-1.3 1.1-1.8 2-.5.9-.7 1.8-.7 2.8zM494.7 133.4c-1.2 0-2.3.3-3.3.9-.9.6-1.6 1.4-2 2.5v9.1h-2.5v-14.6h2.3v3.3c.5-1 1.2-1.8 2-2.5.8-.6 1.7-1 2.6-1.1h.8v2.4zM503.2 146.2c-1.1 0-2.1-.2-3-.6s-1.7-.9-2.3-1.6c-.7-.7-1.2-1.5-1.5-2.4-.4-.9-.5-1.9-.5-2.9s.2-2 .5-2.9c.4-.9.9-1.7 1.5-2.4.7-.7 1.4-1.2 2.3-1.6.9-.4 1.9-.6 3-.6s2.1.2 3 .6c.9.4 1.7 1 2.4 1.6.7.7 1.2 1.5 1.5 2.4.4.9.5 1.9.5 2.9s-.2 2-.5 2.9c-.4.9-.9 1.7-1.5 2.4-.7.7-1.4 1.2-2.4 1.6s-1.9.6-3 .6zm-4.9-7.5c0 1 .2 1.9.7 2.7.4.8 1 1.5 1.8 1.9.7.5 1.5.7 2.4.7s1.7-.2 2.5-.7 1.3-1.1 1.8-2c.4-.8.7-1.7.7-2.7s-.2-1.9-.7-2.7c-.4-.8-1-1.5-1.8-2s-1.6-.7-2.5-.7-1.7.2-2.4.7c-.7.5-1.3 1.1-1.8 2-.5.9-.7 1.8-.7 2.8z" class="st9"></path></g></svg>